<svg width="157" height="72" viewBox="0 0 157 72" fill="none" xmlns="http://www.w3.org/2000/svg">
<g clip-path="url(#clip0_542_600)">
<path d="M10.6108 48.0751C10.6108 48.5256 10.3845 48.7509 9.93194 48.7509H7.90784C7.45525 48.7509 7.22895 48.5256 7.22895 48.0751V36.7634L0.0628704 18.1315C-0.0754224 17.7686 -0.0251341 17.3682 0.553181 17.3682H2.75329C3.29389 17.3682 3.43218 17.6309 3.55791 17.9938L7.37981 28.5423L8.90104 33.2347H8.95132L10.4725 28.5423L14.2945 17.9938C14.4327 17.6309 14.5585 17.3682 15.0991 17.3682H17.2992C17.8775 17.3682 17.9278 17.7686 17.7895 18.1315L10.6108 36.7634V48.0751Z" fill="white"/>
<path d="M37.3767 33.0595C37.3767 45.1221 34.2337 49.1012 28.3123 49.1012C22.3908 49.1012 19.2478 45.1221 19.2478 33.0595C19.2478 20.997 22.3908 17.0178 28.3123 17.0178C34.2337 17.0178 37.3767 20.997 37.3767 33.0595ZM33.9194 33.0595C33.9194 23.1867 32.0839 20.0585 28.3123 20.0585C24.5406 20.0585 22.7051 23.1867 22.7051 33.0595C22.7051 42.9323 24.5406 46.0606 28.3123 46.0606C32.0839 46.0606 33.9194 42.9323 33.9194 33.0595Z" fill="white"/>
<path d="M41.4626 39.5788V18.0439C41.4626 17.5934 41.6889 17.3682 42.1415 17.3682H44.1656C44.6182 17.3682 44.8445 17.5934 44.8445 18.0439V39.316C44.8445 44.096 45.9634 45.973 49.4208 45.973C52.8781 45.973 53.997 44.096 53.997 39.316V18.0439C53.997 17.5934 54.2233 17.3682 54.6759 17.3682H56.7C57.1526 17.3682 57.3789 17.5934 57.3789 18.0439V39.5788C57.3789 46.2357 54.9148 49.1012 49.4333 49.1012C43.9519 49.1012 41.4878 46.2357 41.4878 39.5788" fill="white"/>
<path d="M68.8572 4.30457C68.8572 4.84263 68.4172 5.26807 67.8892 5.26807C67.3612 5.26807 66.9211 4.83012 66.9211 4.30457C66.9211 3.77902 67.3612 3.34106 67.8892 3.34106C68.4172 3.34106 68.8572 3.76651 68.8572 4.30457Z" fill="white"/>
<path d="M68.8572 7.58289C68.8572 8.12095 68.4172 8.54639 67.8892 8.54639C67.3612 8.54639 66.9211 8.10844 66.9211 7.58289C66.9211 7.05734 67.3612 6.61938 67.8892 6.61938C68.4172 6.61938 68.8572 7.05734 68.8572 7.58289Z" fill="white"/>
<path d="M68.8572 11.0741C68.8572 11.6122 68.4172 12.0376 67.8892 12.0376C67.3612 12.0376 66.9211 11.5996 66.9211 11.0741C66.9211 10.5486 67.3612 10.1106 67.8892 10.1106C68.4172 10.1106 68.8572 10.5486 68.8572 11.0741Z" fill="white"/>
<path d="M68.8572 14.6903C68.8572 15.2284 68.4172 15.6538 67.8892 15.6538C67.3612 15.6538 66.9211 15.2284 66.9211 14.6903C66.9211 14.1522 67.3612 13.7268 67.8892 13.7268C68.4172 13.7268 68.8572 14.1648 68.8572 14.6903Z" fill="white"/>
<path d="M68.8572 18.319C68.8572 18.857 68.4172 19.2825 67.8892 19.2825C67.3612 19.2825 66.9211 18.857 66.9211 18.319C66.9211 17.7809 67.3612 17.3555 67.8892 17.3555C68.4172 17.3555 68.8572 17.7809 68.8572 18.319Z" fill="white"/>
<path d="M68.8572 22.2106C68.8572 22.7486 68.4172 23.1741 67.8892 23.1741C67.3612 23.1741 66.9211 22.7486 66.9211 22.2106C66.9211 21.6725 67.3612 21.2471 67.8892 21.2471C68.4172 21.2471 68.8572 21.6725 68.8572 22.2106Z" fill="white"/>
<path d="M68.8572 26.4149C68.8572 26.953 68.4172 27.3784 67.8892 27.3784C67.3612 27.3784 66.9211 26.9405 66.9211 26.4149C66.9211 25.8894 67.3612 25.4514 67.8892 25.4514C68.4172 25.4514 68.8572 25.8894 68.8572 26.4149Z" fill="white"/>
<path d="M68.8572 30.6068C68.8572 31.1449 68.4172 31.5703 67.8892 31.5703C67.3612 31.5703 66.9211 31.1324 66.9211 30.6068C66.9211 30.0813 67.3612 29.6433 67.8892 29.6433C68.4172 29.6433 68.8572 30.0813 68.8572 30.6068Z" fill="white"/>
<path d="M68.8572 35.0114C68.8572 35.5494 68.4172 35.9749 67.8892 35.9749C67.3612 35.9749 66.9211 35.5369 66.9211 35.0114C66.9211 34.4858 67.3612 34.0479 67.8892 34.0479C68.4172 34.0479 68.8572 34.4858 68.8572 35.0114Z" fill="white"/>
<path d="M68.8572 39.7164C68.8572 40.2545 68.4172 40.6799 67.8892 40.6799C67.3612 40.6799 66.9211 40.242 66.9211 39.7164C66.9211 39.1909 67.3612 38.7529 67.8892 38.7529C68.4172 38.7529 68.8572 39.1909 68.8572 39.7164Z" fill="white"/>
<path d="M68.8572 44.609C68.8572 45.1471 68.4172 45.5725 67.8892 45.5725C67.3612 45.5725 66.9211 45.1346 66.9211 44.609C66.9211 44.0835 67.3612 43.6455 67.8892 43.6455C68.4172 43.6455 68.8572 44.0835 68.8572 44.609Z" fill="white"/>
<path d="M68.8572 49.6517C68.8572 50.1898 68.4172 50.6152 67.8892 50.6152C67.3612 50.6152 66.9211 50.1773 66.9211 49.6517C66.9211 49.1262 67.3612 48.6882 67.8892 48.6882C68.4172 48.6882 68.8572 49.1137 68.8572 49.6517Z" fill="white"/>
<path d="M68.8572 55.8956C68.8572 56.4337 68.4172 56.8591 67.8892 56.8591C67.3612 56.8591 66.9211 56.4337 66.9211 55.8956C66.9211 55.3576 67.3612 54.9321 67.8892 54.9321C68.4172 54.9321 68.8572 55.3576 68.8572 55.8956Z" fill="white"/>
<path d="M68.8572 63.0282C68.8572 63.5663 68.4172 63.9917 67.8892 63.9917C67.3612 63.9917 66.9211 63.5663 66.9211 63.0282C66.9211 62.4901 67.3612 62.0647 67.8892 62.0647C68.4172 62.0647 68.8572 62.4901 68.8572 63.0282Z" fill="white"/>
<path d="M80.5869 25.0512C79.5937 25.0512 78.7137 24.8635 78.236 24.6258C78.0851 24.5507 78.0097 24.4756 78.0725 24.3005L78.3365 23.6122C78.3868 23.4496 78.4748 23.3745 78.6634 23.4496C79.0531 23.6122 79.6566 23.7749 80.3858 23.7749C81.3287 23.7749 81.9699 23.4996 81.9699 22.874C81.9699 22.2483 81.291 21.9981 80.4486 21.6727C79.292 21.2473 78.1982 20.7968 78.1982 19.3203C78.1982 17.9563 79.1412 17.2556 80.9515 17.2556C81.8819 17.2556 82.5985 17.4433 83.0133 17.631C83.1642 17.7061 83.2397 17.7812 83.1768 17.9563L82.9253 18.6195C82.8625 18.7822 82.7745 18.8323 82.5733 18.7697C82.1836 18.6195 81.6807 18.5319 81.0772 18.5319C80.1595 18.5319 79.7069 18.7822 79.7069 19.3453C79.7069 19.9584 80.3229 20.1586 81.1527 20.4965C82.3596 20.9845 83.4785 21.3849 83.4785 22.8865C83.4785 24.388 82.2464 25.0387 80.5744 25.0387L80.5869 25.0512Z" fill="white"/>
<path d="M84.1699 17.6309C84.1699 17.4432 84.2579 17.3682 84.4339 17.3682H89.4376C89.6388 17.3682 89.7142 17.4432 89.7142 17.6309V18.4443C89.7142 18.632 89.6388 18.7196 89.4376 18.7196H87.7027V24.6883C87.7027 24.876 87.6272 24.9511 87.4387 24.9511H86.458C86.2695 24.9511 86.194 24.876 86.194 24.6883V18.7196H84.4591C84.2705 18.7196 84.1825 18.632 84.1825 18.4443V17.6309H84.1699Z" fill="white"/>
<path d="M91.0846 17.6309C91.0846 17.4432 91.16 17.3682 91.3486 17.3682H92.3292C92.5052 17.3682 92.5932 17.4432 92.5932 17.6309V24.6883C92.5932 24.876 92.4927 24.9511 92.3292 24.9511H91.3486C91.16 24.9511 91.0846 24.876 91.0846 24.6883V17.6309Z" fill="white"/>
<path d="M95.9752 21.8729V24.6883C95.9752 24.876 95.8872 24.9511 95.7112 24.9511H94.7431C94.542 24.9511 94.4666 24.876 94.4666 24.6883V17.6309C94.4666 17.4432 94.542 17.3682 94.7431 17.3682H98.9674C99.1559 17.3682 99.2314 17.4432 99.2314 17.6184V18.3817C99.2314 18.5694 99.1559 18.657 98.9674 18.657H95.9752V20.6216H98.8794C99.0554 20.6216 99.1434 20.7091 99.1434 20.8843V21.6226C99.1434 21.7978 99.0554 21.8854 98.8794 21.8854H95.9752V21.8729Z" fill="white"/>
<path d="M100.149 17.6309C100.149 17.4432 100.237 17.3682 100.413 17.3682H105.417C105.605 17.3682 105.681 17.4432 105.681 17.6309V18.4443C105.681 18.632 105.605 18.7196 105.417 18.7196H103.669V24.6883C103.669 24.876 103.594 24.9511 103.393 24.9511H102.425C102.236 24.9511 102.148 24.876 102.148 24.6883V18.7196H100.4C100.212 18.7196 100.136 18.632 100.136 18.4443V17.6309H100.149Z" fill="white"/>
<path d="M106.938 22.2107V17.6309C106.938 17.4432 107.026 17.3682 107.215 17.3682H108.183C108.371 17.3682 108.447 17.4432 108.447 17.6309V22.0731C108.447 23.1242 108.874 23.7248 109.943 23.7248C111.011 23.7248 111.439 23.1367 111.439 22.0731V17.6309C111.439 17.4432 111.514 17.3682 111.703 17.3682H112.683C112.859 17.3682 112.947 17.4432 112.947 17.6309V22.2107C112.947 24.0752 111.954 25.0887 109.955 25.0887C107.956 25.0887 106.951 24.0752 106.951 22.2107H106.938Z" fill="white"/>
<path d="M120.78 24.6884C120.78 24.876 120.692 24.9511 120.516 24.9511H119.548C119.359 24.9511 119.284 24.9011 119.208 24.7634L116.166 19.8833V24.6758C116.166 24.8635 116.09 24.9386 115.902 24.9386H114.972C114.783 24.9386 114.708 24.8635 114.708 24.6758V17.6185C114.708 17.4308 114.783 17.3557 114.972 17.3557H115.927C116.128 17.3557 116.191 17.3933 116.279 17.5309L119.321 22.4235V17.6185C119.321 17.4308 119.397 17.3557 119.585 17.3557H120.528C120.704 17.3557 120.792 17.4308 120.792 17.606V24.6758L120.78 24.6884Z" fill="white"/>
<path d="M128.436 20.4338C128.612 20.4338 128.7 20.5214 128.7 20.6966V24.1377C128.7 24.3254 128.587 24.438 128.461 24.5131C127.958 24.8134 127.154 25.0511 125.997 25.0511C123.659 25.0511 122.301 23.8499 122.301 21.1345C122.301 18.4192 123.671 17.2305 126.098 17.2305C127.078 17.2305 127.845 17.4932 128.285 17.7435C128.449 17.8311 128.512 17.9187 128.449 18.0814L128.172 18.7445C128.109 18.9072 128.009 18.9573 127.808 18.8697C127.468 18.732 126.953 18.5568 126.299 18.5568C124.577 18.5568 123.835 19.3076 123.835 21.1345C123.835 22.9614 124.589 23.7247 126.173 23.7247C126.626 23.7247 127.066 23.6246 127.33 23.512V21.61H126.148C125.959 21.61 125.884 21.535 125.884 21.3598V20.7091C125.884 20.5339 125.972 20.4463 126.148 20.4463H128.436V20.4338Z" fill="white"/>
<path d="M78.6886 36.8385C78.4874 36.8385 78.412 36.7634 78.412 36.5757V29.5184C78.412 29.3307 78.4874 29.2556 78.6886 29.2556H81.4167C83.3905 29.2556 84.3083 29.8437 84.3083 31.2327C84.3083 32.1712 83.818 32.6592 83.2648 32.8093C83.9563 32.997 84.5472 33.51 84.5472 34.6237C84.5472 36.2004 83.4911 36.826 81.4921 36.826H78.6886V36.8385ZM81.4041 32.3839C82.4476 32.3839 82.8374 32.0961 82.8374 31.3953C82.8374 30.6946 82.4602 30.4569 81.3916 30.4569H79.9206V32.3839H81.4167H81.4041ZM81.4041 35.6373C82.6111 35.6373 83.0385 35.362 83.0385 34.5611C83.0385 33.8229 82.6488 33.51 81.4544 33.51H79.9081V35.6373H81.4167H81.4041Z" fill="white"/>
<path d="M86.1438 29.5184C86.1438 29.3307 86.2192 29.2556 86.4078 29.2556H87.3884C87.5644 29.2556 87.6525 29.3307 87.6525 29.5184V36.5757C87.6525 36.7634 87.5519 36.8385 87.3884 36.8385H86.4078C86.2192 36.8385 86.1438 36.7634 86.1438 36.5757V29.5184Z" fill="white"/>
<path d="M91.0343 35.4871H93.951C94.1396 35.4871 94.2276 35.5747 94.2276 35.7499V36.5757C94.2276 36.7634 94.1396 36.8385 93.951 36.8385H89.8022C89.6011 36.8385 89.5256 36.7634 89.5256 36.5757V29.5184C89.5256 29.3307 89.6011 29.2556 89.8022 29.2556H90.7703C90.9588 29.2556 91.0343 29.3307 91.0343 29.5184V35.4871Z" fill="white"/>
<path d="M95.9249 36.8385C95.7363 36.8385 95.6609 36.7634 95.6609 36.5757V29.5184C95.6609 29.3307 95.7363 29.2556 95.9249 29.2556H98.0119C100.463 29.2556 101.783 30.2567 101.783 32.972C101.783 35.825 100.451 36.8385 98.0119 36.8385H95.9249ZM97.1695 30.5945V35.4996H97.9616C99.4325 35.4996 100.25 34.9991 100.25 32.972C100.25 31.0825 99.4325 30.5945 97.9616 30.5945H97.1821H97.1695Z" fill="white"/>
<path d="M103.242 34.0982V29.5184C103.242 29.3307 103.33 29.2556 103.506 29.2556H104.474C104.675 29.2556 104.75 29.3307 104.75 29.5184V33.9605C104.75 35.0116 105.165 35.6122 106.247 35.6122C107.328 35.6122 107.743 35.0241 107.743 33.9605V29.5184C107.743 29.3307 107.818 29.2556 108.007 29.2556H108.987C109.163 29.2556 109.251 29.3307 109.251 29.5184V34.0982C109.251 35.9626 108.258 36.9762 106.259 36.9762C104.26 36.9762 103.254 35.9626 103.254 34.0982H103.242Z" fill="white"/>
<path d="M117.084 36.5756C117.084 36.7633 116.996 36.8383 116.82 36.8383H115.839C115.65 36.8383 115.575 36.7883 115.5 36.6506L112.457 31.7706V36.563C112.457 36.7507 112.382 36.8258 112.193 36.8258H111.263C111.062 36.8258 110.986 36.7507 110.986 36.563V29.5057C110.986 29.318 111.062 29.2429 111.263 29.2429H112.218C112.419 29.2429 112.495 29.2805 112.57 29.4181L115.613 34.3107V29.5057C115.613 29.318 115.688 29.2429 115.864 29.2429H116.807C116.983 29.2429 117.071 29.318 117.071 29.4932V36.563L117.084 36.5756Z" fill="white"/>
<path d="M124.753 32.3337C124.929 32.3337 125.017 32.4213 125.017 32.5965V36.0376C125.017 36.2253 124.891 36.3379 124.778 36.413C124.275 36.7133 123.47 36.951 122.314 36.951C119.975 36.951 118.617 35.7498 118.617 33.0344C118.617 30.3191 119.988 29.1304 122.414 29.1304C123.382 29.1304 124.162 29.3931 124.602 29.6434C124.765 29.731 124.828 29.8186 124.765 29.9813L124.501 30.6444C124.438 30.8071 124.338 30.8572 124.137 30.7696C123.797 30.6319 123.282 30.4568 122.628 30.4568C120.906 30.4568 120.176 31.2075 120.176 33.0344C120.176 34.8613 120.931 35.6246 122.515 35.6246C122.967 35.6246 123.407 35.5245 123.671 35.4119V33.5099H122.49C122.301 33.5099 122.226 33.4349 122.226 33.2597V32.609C122.226 32.4338 122.314 32.3462 122.49 32.3462H124.778L124.753 32.3337Z" fill="white"/>
<path d="M131.604 33.7603V36.5757C131.604 36.7634 131.516 36.8385 131.34 36.8385H130.372C130.184 36.8385 130.108 36.7634 130.108 36.5757V29.5184C130.108 29.3307 130.184 29.2556 130.372 29.2556H134.609C134.798 29.2556 134.873 29.3307 134.873 29.5059V30.2692C134.873 30.4569 134.798 30.5445 134.609 30.5445H131.617V32.509H134.521C134.697 32.509 134.785 32.5966 134.785 32.7718V33.51C134.785 33.6852 134.697 33.7728 134.521 33.7728H131.617L131.604 33.7603Z" fill="white"/>
<path d="M136.231 34.0982V29.5184C136.231 29.3307 136.319 29.2556 136.495 29.2556H137.476C137.664 29.2556 137.74 29.3307 137.74 29.5184V33.9605C137.74 35.0116 138.167 35.6122 139.236 35.6122C140.304 35.6122 140.732 35.0241 140.732 33.9605V29.5184C140.732 29.3307 140.807 29.2556 140.996 29.2556H141.976C142.152 29.2556 142.228 29.3307 142.228 29.5184V34.0982C142.228 35.9626 141.235 36.9761 139.236 36.9761C137.237 36.9761 136.231 35.9626 136.231 34.0982ZM138.796 28.4548C138.796 28.63 138.708 28.705 138.532 28.705H137.727C137.564 28.705 137.488 28.63 137.488 28.4548V27.7791C137.488 27.6039 137.564 27.5288 137.727 27.5288H138.532C138.708 27.5288 138.796 27.6039 138.796 27.7791V28.4548ZM140.983 28.4548C140.983 28.63 140.908 28.705 140.732 28.705H139.915C139.739 28.705 139.676 28.63 139.676 28.4548V27.7791C139.676 27.6039 139.739 27.5288 139.915 27.5288H140.732C140.908 27.5288 140.983 27.6039 140.983 27.7791V28.4548Z" fill="white"/>
<path d="M146.703 29.2556C148.803 29.2556 149.859 29.9939 149.859 31.8083C149.859 33.1221 149.142 33.8479 147.998 34.0982L149.834 36.5007C149.96 36.6508 149.884 36.8385 149.67 36.8385H148.64C148.438 36.8385 148.363 36.7509 148.262 36.6258L146.515 34.3109H145.509V36.5757C145.509 36.7634 145.421 36.8385 145.245 36.8385H144.277C144.088 36.8385 144.013 36.7634 144.013 36.5757V29.5184C144.013 29.3307 144.088 29.2556 144.277 29.2556H146.703ZM146.666 33.0596C147.898 33.0596 148.338 32.6592 148.338 31.8083C148.338 30.8948 147.86 30.5445 146.678 30.5445H145.509V33.0471H146.666V33.0596Z" fill="white"/>
<path d="M82.4853 41.368C82.5985 41.2429 82.6865 41.1553 82.8876 41.1553H84.0066C84.2077 41.1553 84.2706 41.343 84.1449 41.4806L81.115 44.6714L84.2077 48.4128C84.3209 48.563 84.2706 48.7507 84.0694 48.7507H82.9254C82.7368 48.7507 82.6488 48.6381 82.5356 48.5129L79.9332 45.4347V48.4879C79.9332 48.6756 79.8452 48.7507 79.6692 48.7507H78.7011C78.5 48.7507 78.4246 48.6756 78.4246 48.4879V41.4306C78.4246 41.2429 78.5 41.1678 78.7011 41.1678H79.6692C79.8578 41.1678 79.9332 41.2429 79.9332 41.4306V44.0333L82.4728 41.3805L82.4853 41.368Z" fill="white"/>
<path d="M85.578 41.4056C85.578 41.2179 85.6534 41.1428 85.842 41.1428H86.8226C86.9986 41.1428 87.0866 41.2179 87.0866 41.4056V48.4629C87.0866 48.6506 86.9861 48.7257 86.8226 48.7257H85.842C85.6534 48.7257 85.578 48.6506 85.578 48.4629V41.4056Z" fill="white"/>
<path d="M95.0323 48.463C95.0323 48.6507 94.9443 48.7258 94.7683 48.7258H93.7876C93.5991 48.7258 93.5236 48.6757 93.4482 48.5381L90.4058 43.658V48.4505C90.4058 48.6382 90.3303 48.7133 90.1417 48.7133H89.2114C89.0102 48.7133 88.9348 48.6382 88.9348 48.4505V41.3931C88.9348 41.2055 89.0102 41.1304 89.2114 41.1304H90.1669C90.368 41.1304 90.4435 41.1679 90.5189 41.3056L93.5613 46.1981V41.3931C93.5613 41.2055 93.6368 41.1304 93.8253 41.1304H94.7683C94.9443 41.1304 95.0323 41.2055 95.0323 41.3806V48.4505V48.463Z" fill="white"/>
<path d="M97.1192 48.7257C96.9181 48.7257 96.8427 48.6506 96.8427 48.4629V41.4056C96.8427 41.2179 96.9181 41.1428 97.1067 41.1428H99.1936C101.633 41.1428 102.965 42.1439 102.965 44.8592C102.965 47.7122 101.633 48.7257 99.2062 48.7257H97.1192ZM98.3639 42.4817V47.3868H99.1559C100.627 47.3868 101.444 46.8863 101.444 44.8592C101.444 42.9697 100.627 42.4817 99.1559 42.4817H98.3764H98.3639Z" fill="white"/>
<path d="M105.983 45.4848V47.4369H109.063C109.251 47.4369 109.327 47.512 109.327 47.6996V48.4629C109.327 48.6506 109.239 48.7257 109.063 48.7257H104.763C104.562 48.7257 104.486 48.6506 104.486 48.4629V41.4056C104.486 41.2179 104.562 41.1428 104.75 41.1428H109.012C109.201 41.1428 109.276 41.2179 109.276 41.4056V42.1689C109.276 42.3566 109.188 42.4317 109.012 42.4317H105.983V44.2335H108.874C109.05 44.2335 109.138 44.3336 109.138 44.4963V45.2096C109.138 45.3847 109.05 45.4723 108.874 45.4723H105.983V45.4848Z" fill="white"/>
<path d="M113.513 41.1553C115.613 41.1553 116.669 41.8935 116.669 43.7079C116.669 45.0218 115.952 45.7476 114.808 45.9978L116.644 48.4003C116.769 48.5505 116.694 48.7382 116.48 48.7382H115.449C115.261 48.7382 115.173 48.6506 115.072 48.5254L113.325 46.2105H112.319V48.4754C112.319 48.6631 112.231 48.7382 112.042 48.7382H111.074C110.886 48.7382 110.81 48.6631 110.81 48.4754V41.418C110.81 41.2304 110.886 41.1553 111.074 41.1553H113.501H113.513ZM113.475 44.9592C114.708 44.9592 115.148 44.5588 115.148 43.7079C115.148 42.7945 114.67 42.4441 113.475 42.4441H112.306V44.9592H113.463H113.475Z" fill="white"/>
<path d="M121.635 41.4056C121.635 41.2179 121.71 41.1428 121.899 41.1428H122.879C123.055 41.1428 123.156 41.2179 123.156 41.4056V48.4629C123.156 48.6506 123.055 48.7257 122.879 48.7257H121.899C121.71 48.7257 121.635 48.6506 121.635 48.4629V41.4056Z" fill="white"/>
<path d="M131.089 48.463C131.089 48.6507 131.001 48.7258 130.825 48.7258H129.844C129.668 48.7258 129.58 48.6757 129.505 48.5381L126.462 43.658V48.4505C126.462 48.6382 126.387 48.7133 126.198 48.7133H125.268C125.079 48.7133 125.004 48.6382 125.004 48.4505V41.3931C125.004 41.2055 125.079 41.1304 125.268 41.1304H126.224C126.412 41.1304 126.488 41.1679 126.576 41.3056L129.618 46.1981V41.3931C129.618 41.2055 129.693 41.1304 129.882 41.1304H130.825C131.001 41.1304 131.089 41.2055 131.089 41.3806V48.4505V48.463Z" fill="white"/>
<path d="M142.341 48.463C142.341 48.6507 142.253 48.7258 142.077 48.7258H141.109C140.92 48.7258 140.845 48.6757 140.769 48.5381L137.727 43.658V48.4505C137.727 48.6382 137.652 48.7133 137.463 48.7133H136.533C136.344 48.7133 136.269 48.6382 136.269 48.4505V41.3931C136.269 41.2055 136.344 41.1304 136.533 41.1304H137.488C137.689 41.1304 137.752 41.1679 137.84 41.3056L140.883 46.1981V41.3931C140.883 41.2055 140.958 41.1304 141.147 41.1304H142.09C142.266 41.1304 142.354 41.2055 142.354 41.3806V48.4505L142.341 48.463Z" fill="white"/>
<path d="M150.613 44.9468C150.613 47.5621 149.356 48.8509 147.231 48.8509C145.107 48.8509 143.862 47.5621 143.862 44.9468C143.862 42.3316 145.119 41.0303 147.244 41.0303C149.369 41.0303 150.626 42.3316 150.626 44.9468H150.613ZM149.067 44.9468C149.067 43.2075 148.464 42.3441 147.231 42.3441C145.999 42.3441 145.396 43.2201 145.396 44.9468C145.396 46.6736 145.999 47.5371 147.231 47.5371C148.464 47.5371 149.067 46.6736 149.067 44.9468Z" fill="white"/>
<path d="M151.456 41.4056C151.456 41.2179 151.544 41.1428 151.72 41.1428H156.736C156.925 41.1428 157 41.2179 157 41.4056V42.2189C157 42.4066 156.925 42.4942 156.736 42.4942H154.988V48.4629C154.988 48.6506 154.913 48.7257 154.724 48.7257H153.744C153.568 48.7257 153.48 48.6506 153.48 48.4629V42.4942H151.745C151.556 42.4942 151.481 42.4066 151.481 42.2189V41.4056H151.456Z" fill="white"/>
<path d="M68.8572 71.0365C68.8572 71.5746 68.4172 72 67.8892 72C67.3612 72 66.9211 71.562 66.9211 71.0365C66.9211 70.511 67.3612 70.073 67.8892 70.073C68.4172 70.073 68.8572 70.511 68.8572 71.0365Z" fill="white"/>
<path d="M68.8572 0.963504C68.8572 1.50156 68.4172 1.92701 67.8892 1.92701C67.3612 1.92701 66.9211 1.48905 66.9211 0.963504C66.9211 0.437956 67.3612 0 67.8892 0C68.4172 0 68.8572 0.425443 68.8572 0.963504Z" fill="white"/>
</g>
<defs>
<clipPath id="clip0_542_600">
<rect width="157" height="72" fill="white"/>
</clipPath>
</defs>
</svg>
